# Blender v2.93.0 OBJ File: 'snowman.blend'
# www.blender.org
o Cone
v -0.324307 2.715127 -0.327641
v -0.318256 2.655693 -0.326648
v -0.300726 2.598580 -0.325669
v -0.272388 2.545986 -0.324743
v -0.234333 2.499930 -0.323905
v -0.188023 2.462182 -0.323186
v -0.135237 2.434193 -0.322616
v -0.078003 2.417039 -0.322215
v -0.018522 2.411379 -0.321999
v 0.040921 2.417431 -0.321977
v 0.098041 2.434961 -0.322149
v 0.150644 2.463296 -0.322508
v 0.196707 2.501348 -0.323042
v 0.234462 2.547653 -0.323728
v 0.262456 2.600433 -0.324542
v 0.279614 2.657660 -0.325451
v 0.285277 2.717133 -0.326421
v 0.279227 2.776567 -0.327414
v 0.261696 2.833680 -0.328393
v 0.233359 2.886274 -0.329319
v 0.195304 2.932330 -0.330157
v 0.148993 2.970078 -0.330875
v 0.096207 2.998067 -0.331446
v 0.038974 3.015221 -0.331847
v -0.020507 3.020881 -0.332062
v -0.079950 3.014829 -0.332085
v -0.137071 2.997299 -0.331913
v -0.189673 2.968964 -0.331553
v -0.235737 2.930912 -0.331020
v -0.273491 2.884607 -0.330334
v -0.301486 2.831827 -0.329520
v -0.318644 2.774600 -0.328611
v -0.018261 2.706071 -0.936535
vt 0.250000 0.490000
vt 0.250000 0.250000
vt 0.296822 0.485388
vt 0.341844 0.471731
vt 0.383337 0.449553
vt 0.419706 0.419706
vt 0.449553 0.383337
vt 0.471731 0.341844
vt 0.485388 0.296822
vt 0.490000 0.250000
vt 0.485388 0.203178
vt 0.471731 0.158156
vt 0.449553 0.116663
vt 0.419706 0.080294
vt 0.383337 0.050447
vt 0.341844 0.028269
vt 0.296822 0.014612
vt 0.250000 0.010000
vt 0.203178 0.014612
vt 0.158156 0.028269
vt 0.116663 0.050447
vt 0.080294 0.080294
vt 0.050447 0.116663
vt 0.028269 0.158156
vt 0.014612 0.203178
vt 0.010000 0.250000
vt 0.014612 0.296822
vt 0.028269 0.341844
vt 0.050447 0.383337
vt 0.080294 0.419706
vt 0.116663 0.449553
vt 0.158156 0.471731
vt 0.985388 0.296822
vt 0.796822 0.014612
vt 0.514612 0.203178
vt 0.203178 0.485388
vt 0.703178 0.485388
vt 0.750000 0.490000
vt 0.796822 0.485388
vt 0.841844 0.471731
vt 0.883337 0.449553
vt 0.919706 0.419706
vt 0.949553 0.383337
vt 0.971731 0.341844
vt 0.990000 0.250000
vt 0.985388 0.203178
vt 0.971731 0.158156
vt 0.949553 0.116663
vt 0.919706 0.080294
vt 0.883337 0.050447
vt 0.841844 0.028269
vt 0.750000 0.010000
vt 0.703178 0.014612
vt 0.658156 0.028269
vt 0.616663 0.050447
vt 0.580294 0.080294
vt 0.550447 0.116663
vt 0.528269 0.158156
vt 0.510000 0.250000
vt 0.514612 0.296822
vt 0.528269 0.341844
vt 0.550447 0.383337
vt 0.580294 0.419706
vt 0.616663 0.449553
vt 0.658156 0.471731
vn -0.8898 -0.0980 -0.4458
vn -0.8550 -0.2700 -0.4429
vn -0.7873 -0.4319 -0.4400
vn -0.6893 -0.5775 -0.4374
vn -0.5648 -0.7012 -0.4351
vn -0.4185 -0.7982 -0.4332
vn -0.2562 -0.8648 -0.4318
vn -0.0839 -0.8985 -0.4309
vn 0.0916 -0.8979 -0.4305
vn 0.2636 -0.8631 -0.4308
vn 0.4255 -0.7954 -0.4315
vn 0.5711 -0.6975 -0.4329
vn 0.6948 -0.5730 -0.4347
vn 0.7919 -0.4267 -0.4369
vn 0.8585 -0.2644 -0.4394
vn 0.8922 -0.0922 -0.4422
vn 0.8916 0.0833 -0.4451
vn 0.8568 0.2553 -0.4480
vn 0.7891 0.4172 -0.4508
vn 0.6911 0.5628 -0.4534
vn 0.5666 0.6865 -0.4557
vn 0.4204 0.7835 -0.4576
vn 0.2580 0.8501 -0.4590
vn 0.0858 0.8838 -0.4600
vn -0.0897 0.8832 -0.4603
vn -0.2618 0.8484 -0.4601
vn -0.4237 0.7807 -0.4593
vn -0.5693 0.6828 -0.4580
vn -0.6930 0.5583 -0.4562
vn -0.7900 0.4120 -0.4540
vn -0.0021 0.0165 0.9999
vn -0.8567 0.2497 -0.4514
vn -0.8903 0.0775 -0.4487
vn -0.0020 0.0165 0.9999
s off
f 1/1/1 33/2/1 2/3/1
f 2/3/2 33/2/2 3/4/2
f 3/4/3 33/2/3 4/5/3
f 4/5/4 33/2/4 5/6/4
f 5/6/5 33/2/5 6/7/5
f 6/7/6 33/2/6 7/8/6
f 7/8/7 33/2/7 8/9/7
f 8/9/8 33/2/8 9/10/8
f 9/10/9 33/2/9 10/11/9
f 10/11/10 33/2/10 11/12/10
f 11/12/11 33/2/11 12/13/11
f 12/13/12 33/2/12 13/14/12
f 13/14/13 33/2/13 14/15/13
f 14/15/14 33/2/14 15/16/14
f 15/16/15 33/2/15 16/17/15
f 16/17/16 33/2/16 17/18/16
f 17/18/17 33/2/17 18/19/17
f 18/19/18 33/2/18 19/20/18
f 19/20/19 33/2/19 20/21/19
f 20/21/20 33/2/20 21/22/20
f 21/22/21 33/2/21 22/23/21
f 22/23/22 33/2/22 23/24/22
f 23/24/23 33/2/23 24/25/23
f 24/25/24 33/2/24 25/26/24
f 25/26/25 33/2/25 26/27/25
f 26/27/26 33/2/26 27/28/26
f 27/28/27 33/2/27 28/29/27
f 28/29/28 33/2/28 29/30/28
f 29/30/29 33/2/29 30/31/29
f 30/31/30 33/2/30 31/32/30
f 8/33/31 16/34/31 24/35/31
f 31/32/32 33/2/32 32/36/32
f 32/36/33 33/2/33 1/1/33
f 32/37/31 1/38/31 2/39/31
f 2/39/31 3/40/31 4/41/31
f 4/41/31 5/42/31 6/43/31
f 6/43/31 7/44/31 8/33/31
f 8/33/31 9/45/31 10/46/31
f 10/46/31 11/47/31 12/48/31
f 12/48/31 13/49/31 14/50/31
f 14/50/31 15/51/31 16/34/31
f 16/34/34 17/52/34 18/53/34
f 18/53/34 19/54/34 20/55/34
f 20/55/31 21/56/31 22/57/31
f 22/57/31 23/58/31 24/35/31
f 24/35/31 25/59/31 26/60/31
f 26/60/31 27/61/31 24/35/31
f 27/61/31 28/62/31 24/35/31
f 28/62/31 29/63/31 30/64/31
f 30/64/31 31/65/31 28/62/31
f 31/65/31 32/37/31 28/62/31
f 32/37/31 2/39/31 8/33/31
f 2/39/31 4/41/31 8/33/31
f 4/41/31 6/43/31 8/33/31
f 8/33/31 10/46/31 12/48/31
f 12/48/31 14/50/31 8/33/31
f 14/50/31 16/34/31 8/33/31
f 16/34/31 18/53/31 24/35/31
f 18/53/31 20/55/31 24/35/31
f 20/55/31 22/57/31 24/35/31
f 24/35/31 28/62/31 32/37/31
f 32/37/31 8/33/31 24/35/31
